<svg width="19" height="27" viewBox="0 0 19 27" fill="none" xmlns="http://www.w3.org/2000/svg">
<path d="M9.78575 26.432C7.93775 26.432 6.32975 26.096 4.96175 25.424C3.59375 24.752 2.53775 23.816 1.79375 22.616C1.04975 21.416 0.67775 20.024 0.67775 18.44H3.84575C3.84575 19.424 4.07375 20.336 4.52975 21.176C4.98575 21.992 5.64575 22.652 6.50975 23.156C7.39775 23.636 8.48975 23.876 9.78575 23.876C11.4898 23.876 12.8098 23.468 13.7458 22.652C14.6818 21.836 15.1498 20.816 15.1498 19.592C15.1498 18.584 14.9338 17.78 14.5018 17.18C14.0698 16.556 13.4818 16.052 12.7378 15.668C12.0178 15.284 11.1778 14.948 10.2178 14.66C9.28175 14.372 8.29775 14.048 7.26575 13.688C5.32175 13.016 3.88175 12.188 2.94575 11.204C2.00975 10.196 1.54175 8.888 1.54175 7.28C1.51775 5.936 1.82975 4.748 2.47775 3.716C3.12575 2.66 4.03775 1.844 5.21375 1.268C6.41375 0.667999 7.82975 0.368 9.46175 0.368C11.0698 0.368 12.4618 0.667999 13.6378 1.268C14.8378 1.868 15.7618 2.696 16.4098 3.752C17.0818 4.808 17.4298 6.008 17.4538 7.352H14.2858C14.2858 6.656 14.1058 5.972 13.7458 5.3C13.3858 4.604 12.8338 4.04 12.0898 3.608C11.3698 3.176 10.4578 2.96 9.35375 2.96C7.98575 2.936 6.85775 3.284 5.96975 4.004C5.10575 4.724 4.67375 5.72 4.67375 6.992C4.67375 8.072 4.97375 8.9 5.57375 9.476C6.19775 10.052 7.06175 10.532 8.16575 10.916C9.26975 11.276 10.5418 11.696 11.9818 12.176C13.1818 12.608 14.2618 13.112 15.2218 13.688C16.1818 14.264 16.9258 15.008 17.4538 15.92C18.0058 16.832 18.2818 17.996 18.2818 19.412C18.2818 20.612 17.9698 21.752 17.3458 22.832C16.7218 23.888 15.7738 24.752 14.5018 25.424C13.2538 26.096 11.6818 26.432 9.78575 26.432Z" fill="#222831"/>
<path d="M4.96175 25.424L4.52085 26.3216L4.52085 26.3216L4.96175 25.424ZM1.79375 22.616L0.943847 23.1429L0.943847 23.1429L1.79375 22.616ZM0.67775 18.44V17.44H-0.32225V18.44H0.67775ZM3.84575 18.44H4.84575V17.44H3.84575V18.44ZM4.52975 21.176L3.65083 21.6531L3.65681 21.6638L4.52975 21.176ZM6.50975 23.156L6.00588 24.0198L6.01993 24.028L6.03423 24.0357L6.50975 23.156ZM13.7458 22.652L13.0886 21.8982L13.0886 21.8982L13.7458 22.652ZM14.5018 17.18L13.6796 17.7492L13.6848 17.7568L13.6902 17.7643L14.5018 17.18ZM12.7378 15.668L12.2671 16.5504L12.2791 16.5566L12.7378 15.668ZM10.2178 14.66L9.92366 15.6158L9.9304 15.6178L10.2178 14.66ZM7.26575 13.688L7.59512 12.7438L7.59246 12.7429L7.26575 13.688ZM2.94575 11.204L2.2129 11.8845L2.22119 11.8932L2.94575 11.204ZM1.54175 7.28H2.54175V7.27107L2.54159 7.26214L1.54175 7.28ZM2.47775 3.716L3.32468 4.2478L3.33007 4.23902L2.47775 3.716ZM5.21375 1.268L5.65363 2.16609L5.66096 2.16243L5.21375 1.268ZM13.6378 1.268L13.1833 2.15879L13.1905 2.16243L13.6378 1.268ZM16.4098 3.752L15.5574 4.27502L15.5617 4.28198L15.5661 4.28887L16.4098 3.752ZM17.4538 7.352V8.352H18.4718L18.4536 7.33414L17.4538 7.352ZM14.2858 7.352H13.2858V8.352H14.2858V7.352ZM13.7458 5.3L12.8575 5.75942L12.8609 5.76584L12.8643 5.77222L13.7458 5.3ZM12.0898 3.608L11.5753 4.46549L11.5814 4.46918L11.5876 4.47279L12.0898 3.608ZM9.35375 2.96L9.33621 3.95984L9.34498 3.96H9.35375V2.96ZM5.96975 4.004L5.33989 3.22717L5.32957 3.23578L5.96975 4.004ZM5.57375 9.476L4.88122 10.1974L4.88828 10.2042L4.89547 10.2108L5.57375 9.476ZM8.16575 10.916L7.83723 11.8605L7.84645 11.8637L7.85573 11.8667L8.16575 10.916ZM11.9818 12.176L12.3205 11.2351L12.3093 11.2311L12.298 11.2273L11.9818 12.176ZM15.2218 13.688L14.7073 14.5455L14.7073 14.5455L15.2218 13.688ZM17.4538 15.92L16.5883 16.421L16.5932 16.4295L16.5983 16.4378L17.4538 15.92ZM17.3458 22.832L18.2067 23.3408L18.2116 23.3323L17.3458 22.832ZM14.5018 25.424L14.0346 24.5398L14.0277 24.5435L14.5018 25.424ZM9.78575 25.432C8.05861 25.432 6.60735 25.1182 5.40265 24.5264L4.52085 26.3216C6.05215 27.0738 7.81689 27.432 9.78575 27.432V25.432ZM5.40265 24.5264C4.18913 23.9303 3.28092 23.1169 2.64365 22.0891L0.943847 23.1429C1.79458 24.5151 2.99837 25.5737 4.52085 26.3216L5.40265 24.5264ZM2.64365 22.0891C2.00937 21.066 1.67775 19.8611 1.67775 18.44H-0.32225C-0.32225 20.1869 0.0901268 21.766 0.943847 23.1429L2.64365 22.0891ZM0.67775 19.44H3.84575V17.44H0.67775V19.44ZM2.84575 18.44C2.84575 19.5855 3.11299 20.6622 3.6509 21.6531L5.4086 20.6989C5.03451 20.0098 4.84575 19.2625 4.84575 18.44H2.84575ZM3.65681 21.6638C4.20614 22.6468 4.99868 23.4322 6.00588 24.0198L7.01362 22.2922C6.29282 21.8718 5.76536 21.3372 5.40269 20.6882L3.65681 21.6638ZM6.03423 24.0357C7.10396 24.6139 8.36963 24.876 9.78575 24.876V22.876C8.60987 22.876 7.69154 22.6581 6.98527 22.2763L6.03423 24.0357ZM9.78575 24.876C11.6412 24.876 13.2267 24.4311 14.4029 23.4058L13.0886 21.8982C12.3928 22.5049 11.3383 22.876 9.78575 22.876V24.876ZM14.4029 23.4058C15.5531 22.403 16.1498 21.1098 16.1498 19.592H14.1498C14.1498 20.5222 13.8104 21.269 13.0886 21.8982L14.4029 23.4058ZM16.1498 19.592C16.1498 18.449 15.9053 17.4179 15.3133 16.5957L13.6902 17.7643C13.9622 18.1421 14.1498 18.719 14.1498 19.592H16.1498ZM15.3239 16.6108C14.7894 15.8387 14.0706 15.2306 13.1964 14.7794L12.2791 16.5566C12.8929 16.8734 13.3501 17.2733 13.6796 17.7492L15.3239 16.6108ZM13.2083 14.7856C12.4185 14.3644 11.5148 14.0051 10.5051 13.7022L9.9304 15.6178C10.8407 15.8909 11.617 16.2036 12.2672 16.5504L13.2083 14.7856ZM10.5118 13.7042C9.58893 13.4202 8.61675 13.1002 7.59512 12.7438L6.93638 14.6322C7.97875 14.9958 8.97457 15.3237 9.92366 15.6158L10.5118 13.7042ZM7.59246 12.7429C5.72851 12.0985 4.45382 11.3385 3.67031 10.5148L2.22119 11.8932C3.30968 13.0375 4.91499 13.9335 6.93904 14.6331L7.59246 12.7429ZM3.67854 10.5235C2.94294 9.73136 2.54175 8.6811 2.54175 7.28H0.54175C0.54175 9.0949 1.07656 10.6606 2.21296 11.8845L3.67854 10.5235ZM2.54159 7.26214C2.52069 6.09153 2.79044 5.09853 3.32464 4.24777L1.63086 3.18423C0.869061 4.39747 0.514813 5.78047 0.54191 7.29785L2.54159 7.26214ZM3.33007 4.23902C3.87317 3.35397 4.63772 2.66364 5.65362 2.16606L4.77388 0.369936C3.43778 1.02435 2.37833 1.96603 1.62543 3.19298L3.33007 4.23902ZM5.66096 2.16243C6.69525 1.64528 7.95188 1.368 9.46175 1.368V-0.632C7.70762 -0.632 6.13225 -0.309285 4.76654 0.373571L5.66096 2.16243ZM9.46175 1.368C10.9457 1.368 12.1754 1.64456 13.1833 2.15876L14.0922 0.377237C12.7481 -0.30856 11.1938 -0.632 9.46175 -0.632V1.368ZM13.1905 2.16243C14.2378 2.68608 15.0152 3.3914 15.5574 4.27502L17.2621 3.22898C16.5083 2.0006 15.4377 1.04992 14.085 0.373571L13.1905 2.16243ZM15.5661 4.28887C16.1319 5.17803 16.4329 6.1958 16.4539 7.36985L18.4536 7.33414C18.4266 5.8202 18.0316 4.43797 17.2534 3.21512L15.5661 4.28887ZM17.4538 6.352H14.2858V8.352H17.4538V6.352ZM15.2858 7.352C15.2858 6.47589 15.0575 5.63086 14.6272 4.82778L12.8643 5.77222C13.154 6.31313 13.2858 6.83611 13.2858 7.352H15.2858ZM14.634 4.84058C14.178 3.95906 13.4838 3.26111 12.5919 2.74321L11.5876 4.47279C12.1837 4.81889 12.5935 5.24894 12.8575 5.75942L14.634 4.84058ZM12.6042 2.75051C11.6872 2.20028 10.5834 1.96 9.35375 1.96V3.96C10.3321 3.96 11.0523 4.15171 11.5753 4.46549L12.6042 2.75051ZM9.37129 1.96015C7.81635 1.93287 6.44511 2.33117 5.33995 3.22724L6.59955 4.78076C7.27039 4.23683 8.15515 3.93912 9.33621 3.95984L9.37129 1.96015ZM5.32957 3.23578C4.20602 4.17206 3.67375 5.46689 3.67375 6.992H5.67375C5.67375 5.9731 6.00548 5.27593 6.60993 4.77222L5.32957 3.23578ZM3.67375 6.992C3.67375 8.25899 4.03075 9.38094 4.88122 10.1974L6.26628 8.75461C5.91675 8.41906 5.67375 7.88501 5.67375 6.992H3.67375ZM4.89547 10.2108C5.6508 10.908 6.64925 11.4473 7.83723 11.8605L8.49427 9.9715C7.47425 9.61671 6.7447 9.19597 6.25203 8.7412L4.89547 10.2108ZM7.85573 11.8667C8.95714 12.2259 10.227 12.6452 11.6655 13.1247L12.298 11.2273C10.8565 10.7468 9.58236 10.3261 8.47577 9.96527L7.85573 11.8667ZM11.643 13.1169C12.7901 13.5298 13.8101 14.0072 14.7073 14.5455L15.7362 12.8305C14.7134 12.2168 13.5734 11.6862 12.3205 11.2351L11.643 13.1169ZM14.7073 14.5455C15.5313 15.0399 16.1505 15.6648 16.5883 16.421L18.3192 15.419C17.701 14.3512 16.8322 13.4881 15.7362 12.8305L14.7073 14.5455ZM16.5983 16.4378C17.0295 17.1503 17.2818 18.1203 17.2818 19.412H19.2818C19.2818 17.8717 18.982 16.5137 18.3093 15.4022L16.5983 16.4378ZM17.2818 19.412C17.2818 20.4293 17.0196 21.3976 16.4799 22.3317L18.2116 23.3323C18.9199 22.1064 19.2818 20.7947 19.2818 19.412H17.2818ZM16.4848 22.3233C15.9701 23.1944 15.1718 23.939 14.0346 24.5398L14.9689 26.3082C16.3757 25.565 17.4734 24.5816 18.2067 23.3407L16.4848 22.3233ZM14.0277 24.5435C12.9662 25.1151 11.5699 25.432 9.78575 25.432V27.432C11.7936 27.432 13.5413 27.0769 14.9759 26.3045L14.0277 24.5435Z" fill="#54B689"/>
</svg>
